<svg xmlns="http://www.w3.org/2000/svg" viewBox="0 0 64 64"><defs><radialGradient id="g12" cx="36%" cy="30%" r="78%"><stop offset="0%" stop-color="#f5c14f"/><stop offset="100%" stop-color="#cf8b1f"/></radialGradient></defs><path d="M32 4 L26 16 L32 9 L38 16 Z M22 8 L24 18 L30 12 Z M42 8 L40 18 L34 12 Z" fill="#4c8b34" stroke="#3c6e28" stroke-width="1"/><clipPath id="cAbx"><ellipse cx="32" cy="40" rx="15" ry="19"/></clipPath><ellipse cx="32" cy="40" rx="15" ry="19" fill="url(#g12)" stroke="rgba(92,58,52,0.30)" stroke-width="1.4"/><g clip-path="url(#cAbx)"><line x1="6" y1="24" x2="26" y2="58" stroke="#a86e14" stroke-width="1.1" opacity="0.55"/><line x1="26" y1="24" x2="6" y2="58" stroke="#a86e14" stroke-width="1.1" opacity="0.55"/><line x1="14" y1="24" x2="34" y2="58" stroke="#a86e14" stroke-width="1.1" opacity="0.55"/><line x1="34" y1="24" x2="14" y2="58" stroke="#a86e14" stroke-width="1.1" opacity="0.55"/><line x1="22" y1="24" x2="42" y2="58" stroke="#a86e14" stroke-width="1.1" opacity="0.55"/><line x1="42" y1="24" x2="22" y2="58" stroke="#a86e14" stroke-width="1.1" opacity="0.55"/><line x1="30" y1="24" x2="50" y2="58" stroke="#a86e14" stroke-width="1.1" opacity="0.55"/><line x1="50" y1="24" x2="30" y2="58" stroke="#a86e14" stroke-width="1.1" opacity="0.55"/><line x1="38" y1="24" x2="58" y2="58" stroke="#a86e14" stroke-width="1.1" opacity="0.55"/><line x1="58" y1="24" x2="38" y2="58" stroke="#a86e14" stroke-width="1.1" opacity="0.55"/></g><ellipse cx="25" cy="30" rx="3.6" ry="6" fill="#fff" opacity="0.4" transform="rotate(-12 25 30)"/></svg>