<svg xmlns="http://www.w3.org/2000/svg" viewBox="0 0 64 64"><defs><linearGradient id="g56" x1="0" y1="0" x2="0.6" y2="1"><stop offset="0%" stop-color="#f7c948"/><stop offset="100%" stop-color="#d98e18"/></linearGradient></defs><polygon points="28.7,13.0 28.7,23.0 20.0,28.0 11.3,23.0 11.3,13.0 20.0,8.0" fill="url(#g56)" stroke="#a86e14" stroke-width="1.3"/><polygon points="48.7,13.0 48.7,23.0 40.0,28.0 31.3,23.0 31.3,13.0 40.0,8.0" fill="url(#g56)" stroke="#a86e14" stroke-width="1.3"/><polygon points="38.7,29.0 38.7,39.0 30.0,44.0 21.3,39.0 21.3,29.0 30.0,24.0" fill="url(#g56)" stroke="#a86e14" stroke-width="1.3"/><polygon points="58.7,29.0 58.7,39.0 50.0,44.0 41.3,39.0 41.3,29.0 50.0,24.0" fill="url(#g56)" stroke="#a86e14" stroke-width="1.3"/><polygon points="28.7,45.0 28.7,55.0 20.0,60.0 11.3,55.0 11.3,45.0 20.0,40.0" fill="url(#g56)" stroke="#a86e14" stroke-width="1.3"/><polygon points="48.7,45.0 48.7,55.0 40.0,60.0 31.3,55.0 31.3,45.0 40.0,40.0" fill="url(#g56)" stroke="#a86e14" stroke-width="1.3"/><ellipse cx="16" cy="14" rx="2.6" ry="1.8" fill="#fff" opacity="0.45" transform="rotate(-20 16 14)"/></svg>