<svg xmlns="http://www.w3.org/2000/svg" viewBox="0 0 64 64"><defs><radialGradient id="g31" cx="36%" cy="30%" r="78%"><stop offset="0%" stop-color="#fdf8e4"/><stop offset="100%" stop-color="#e0cc8a"/></radialGradient></defs><g transform="rotate(-14 22 32)"><rect x="18" y="5" width="8" height="54" rx="4" fill="#4e3018" stroke="rgba(40,20,8,0.5)" stroke-width="1.1"/><path d="M22 9 C20.5 22 20.5 42 22 55" fill="none" stroke="#8a5f3e" stroke-width="1.6" stroke-linecap="round"/></g><g transform="rotate(6 35 32)"><rect x="31" y="5" width="8" height="54" rx="4" fill="#4e3018" stroke="rgba(40,20,8,0.5)" stroke-width="1.1"/><path d="M35 9 C33.5 22 33.5 42 35 55" fill="none" stroke="#8a5f3e" stroke-width="1.6" stroke-linecap="round"/></g><ellipse cx="44" cy="35.5" rx="4.4" ry="8.2" fill="url(#g31)" stroke="rgba(92,58,52,0.30)" stroke-width="0.9" transform="rotate(0 44 43)"/><ellipse cx="44" cy="35.5" rx="4.4" ry="8.2" fill="url(#g31)" stroke="rgba(92,58,52,0.30)" stroke-width="0.9" transform="rotate(72 44 43)"/><ellipse cx="44" cy="35.5" rx="4.4" ry="8.2" fill="url(#g31)" stroke="rgba(92,58,52,0.30)" stroke-width="0.9" transform="rotate(144 44 43)"/><ellipse cx="44" cy="35.5" rx="4.4" ry="8.2" fill="url(#g31)" stroke="rgba(92,58,52,0.30)" stroke-width="0.9" transform="rotate(216 44 43)"/><ellipse cx="44" cy="35.5" rx="4.4" ry="8.2" fill="url(#g31)" stroke="rgba(92,58,52,0.30)" stroke-width="0.9" transform="rotate(288 44 43)"/><circle cx="44" cy="43" r="4.2" fill="#eab13c" stroke="#c98a30" stroke-width="1"/><ellipse cx="42" cy="41" rx="1.6" ry="1.1" fill="#fff" opacity="0.5"/></svg>