<svg xmlns="http://www.w3.org/2000/svg" viewBox="0 0 64 64"><defs><linearGradient id="g42" x1="0" y1="0" x2="0.6" y2="1"><stop offset="0%" stop-color="#a8842e"/><stop offset="100%" stop-color="#6e5416"/></linearGradient></defs><path d="M32 6 C46 14 50 34 44 46 C40 54 36 58 32 58 C28 58 24 54 20 46 C14 34 18 14 32 6 Z" fill="url(#g42)" stroke="rgba(92,58,52,0.30)" stroke-width="1.4"/><path d="M32 10 L32 54 M32 20 C26 22 22 26 20 30 M32 20 C38 22 42 26 44 30 M32 32 C27 34 23 37 21 41 M32 32 C37 34 41 37 43 41" fill="none" stroke="#54400e" stroke-width="1.3" opacity="0.65"/><ellipse cx="25" cy="18" rx="3" ry="4.6" fill="#fff" opacity="0.25" transform="rotate(-14 25 18)"/></svg>